<svg width="20" height="25" viewBox="2 2 18 18" fill="none" xmlns="http://www.w3.org/2000/svg">
<g clip-path="url(#clip0_202_254)">
<path d="M12.5479 3.48407L12.4948 3.48427C10.5523 3.49794 8.72042 4.26611 7.33658 5.64722C5.95269 7.02837 5.18095 8.85876 5.16356 10.8012C5.14501 12.8749 6.00636 14.8732 7.52674 16.2836C8.06261 16.7807 8.36998 17.4764 8.36998 18.1922V22.1893H9.86326V22.3153C9.86326 23.7957 11.0676 25 12.548 25C14.0283 25 15.2327 23.7957 15.2327 22.3153V22.1893H16.726V18.1832C16.726 17.47 17.0271 16.7835 17.552 16.2995C19.0649 14.9048 19.9327 12.9254 19.9327 10.8688C19.9326 6.79685 16.6198 3.48407 12.5479 3.48407ZM13.7675 22.3153C13.7675 22.9878 13.2204 23.5349 12.5479 23.5349C11.8754 23.5349 11.3282 22.9878 11.3282 22.3153V22.1893H13.7675V22.3153H13.7675ZM9.83498 20.7243V18.9247H15.2608V20.7243H9.83498ZM16.559 15.2223C15.9136 15.8172 15.4836 16.6071 15.3269 17.4596H13.2804V14.9118L15.2715 13.6312V11.4261H13.8064V12.8315L12.5479 13.641L11.2894 12.8315V11.4261H9.82433V13.6312L11.8154 14.9118V17.4596H9.76681C9.60731 16.6069 9.17341 15.8128 8.52308 15.2095C7.3042 14.0788 6.61362 12.4768 6.62852 10.8144C6.65728 7.60297 9.29355 4.97193 12.5051 4.94927L12.5479 4.94912C15.812 4.94912 18.4675 7.60463 18.4675 10.8687C18.4676 12.5174 17.7719 14.1042 16.559 15.2223Z" fill="#6876C0"/>
<path d="M11.7675 0H13.2325V1.97948H11.7675V0Z" fill="#6876C0"/>
<path d="M6.42847 1.81793L7.6972 1.08541L8.68948 2.80404L7.42075 3.53656L6.42847 1.81793Z" fill="#6876C0"/>
<path d="M2.71661 6.06622L3.44914 4.79749L5.16777 5.78977L4.43524 7.0585L2.71661 6.06622Z" fill="#6876C0"/>
<path d="M1.6261 10.1362H3.61066V11.6013H1.6261V10.1362Z" fill="#6876C0"/>
<path d="M21.3893 10.1362H23.3739V11.6013H21.3893V10.1362Z" fill="#6876C0"/>
<path d="M19.8315 5.78955L21.5502 4.79725L22.2827 6.06598L20.5641 7.05829L19.8315 5.78955Z" fill="#6876C0"/>
<path d="M16.3102 2.8045L17.3025 1.08588L18.5712 1.8184L17.5789 3.53703L16.3102 2.8045Z" fill="#6876C0"/>
</g>
<defs>
<clipPath id="clip0_202_254">
<rect width="25" height="25" fill="white"/>
</clipPath>
</defs>
</svg>
