<svg width="257" height="144" viewBox="0 0 257 144" fill="none" xmlns="http://www.w3.org/2000/svg">
<g clip-path="url(#clip0_202_150)">
<path d="M39.1079 107.02C39.1079 107.02 44.9221 100.223 39.4665 95.9071C39.4665 95.9071 35.4813 93.4893 32.2313 93.6854C32.2313 93.6854 36.8351 101.421 35.3468 102.191C33.857 102.96 30.8356 93.1988 30.8356 93.1988C30.8356 93.1988 21.7669 92.3185 18.8486 93.7228C18.8486 93.7228 26.6024 100.08 24.9691 100.458C23.3359 100.837 14.9621 94.5971 14.9621 94.5971C14.9621 94.5971 6.52095 96.0359 6.97073 101.195C7.4205 106.354 10.3298 107.947 11.6074 107.809C12.8865 107.672 20.3638 104.812 20.5267 105.862C20.6896 106.911 16.1888 110.341 13.0359 110.501C13.0359 110.501 18.9876 117.077 22.9414 115.18C26.8967 113.282 27.2344 110.274 29.7 109.145C32.1655 108.016 34.2694 108.019 33.2518 109.17C32.2343 110.322 27.7724 111.44 26.3618 113.939C24.9512 116.438 23.6871 118.123 27.7784 117.506C31.8711 116.89 38.5221 113.889 38.8135 110.455L39.1049 107.019L39.1079 107.02Z" fill="#D5D6DA"/>
<path d="M11.1188 101.336C11.1188 101.336 34.0453 100.451 39.1079 107.02C39.1079 107.02 40.2271 110.38 43.6728 113.44L44.2093 114.907C44.2093 114.907 40.236 110.711 38.815 110.456C38.815 110.456 41.0385 102.318 11.1173 101.337L11.1188 101.336Z" fill="#D5D6DA"/>
<path d="M43.6743 113.44C43.6743 113.44 48.5949 117.086 48.9371 123.601L48.0436 123.681C48.0436 123.681 46.4716 116.944 43.631 114.31C40.7904 111.675 43.6743 113.44 43.6743 113.44Z" fill="#599DAD"/>
<path d="M59.4388 98.4733C59.4388 98.4733 50.1893 93.2842 54.5063 86.2401C54.5063 86.2401 57.9595 81.9148 61.6593 80.8039C61.6593 80.8039 59.6854 91.3064 61.6593 91.5535C63.6332 91.8005 63.0161 79.6916 63.0161 79.6916C63.0161 79.6916 72.7587 74.9965 76.5825 75.3663C76.5825 75.3663 70.5397 85.6218 72.5121 85.3747C74.4861 85.1277 81.2685 74.748 81.2685 74.748C81.2685 74.748 91.2577 72.8945 92.861 78.8262C94.4644 84.7579 91.8748 87.7223 90.394 88.0935C88.9147 88.4648 79.4171 88.3406 79.6652 89.5757C79.9117 90.8109 86.3251 92.7886 89.9009 91.6762C89.9009 91.6762 85.9545 101.438 80.7739 100.944C75.5948 100.449 73.9915 97.2366 70.7848 96.9896C67.5781 96.7426 65.2351 97.6079 66.8384 98.4718C68.4418 99.3371 73.8674 98.7547 76.4585 100.962C79.0481 103.167 81.1445 104.526 76.3345 105.516C71.5244 106.504 62.8921 105.887 61.1647 102.18L59.4373 98.4733H59.4388Z" fill="#EAEAEA"/>
<path d="M88.2976 80.6797C88.2976 80.6797 62.399 89.0817 59.4388 98.4733C59.4388 98.4733 59.5629 102.674 56.9718 107.494V109.347C56.9718 109.347 59.6854 103.046 61.1647 102.18C61.1647 102.18 55.3685 94.0252 88.2976 80.6797Z" fill="#EAEAEA"/>
<path d="M56.9718 107.494C56.9718 107.494 52.9776 113.57 55.2549 120.968L56.2829 120.691C56.2829 120.691 55.2863 112.543 57.3753 108.446C59.4642 104.348 56.9718 107.494 56.9718 107.494Z" fill="#EAEAEA"/>
<path d="M44.7233 91.3154C44.7233 91.3154 56.9165 84.475 51.2263 75.1897C51.2263 75.1897 46.6748 69.4885 41.7975 68.0228C41.7975 68.0228 44.3991 81.8684 41.7975 82.1933C39.196 82.5197 40.0089 66.5571 40.0089 66.5571C40.0089 66.5571 27.1657 60.3679 22.1256 60.856C22.1256 60.856 30.0915 74.3752 27.49 74.0488C24.8884 73.7224 15.9468 60.0415 15.9468 60.0415C15.9468 60.0415 2.77931 57.5982 0.664926 65.4163C-1.44796 73.2344 1.96494 77.1434 3.91645 77.633C5.86795 78.1211 18.3854 77.9594 18.0597 79.5883C17.7339 81.2172 9.28085 83.8237 4.56645 82.358C4.56645 82.358 9.76948 95.226 16.5968 94.5747C23.4241 93.9234 25.5385 89.688 29.7642 89.3616C33.9915 89.0353 37.0801 90.1761 34.9673 91.3169C32.8544 92.4577 25.7013 91.6912 22.2869 94.5987C18.8725 97.5061 16.1096 99.2982 22.4498 100.601C28.79 101.903 40.1703 101.089 42.446 96.2036L44.7218 91.3169L44.7233 91.3154Z" fill="#EAEAEA"/>
<path d="M6.68231 67.8611C6.68231 67.8611 40.8218 78.937 44.7233 91.3169C44.7233 91.3169 44.5604 96.8548 47.9748 103.207V105.651C47.9748 105.651 44.399 97.3429 42.4475 96.2036C42.4475 96.2036 50.0877 85.4541 6.68231 67.8626V67.8611Z" fill="#D5D6DA"/>
<path d="M47.9748 103.206C47.9748 103.206 53.2391 111.215 50.2386 120.966L48.8833 120.603C48.8833 120.603 50.1982 109.862 47.4428 104.46C44.6889 99.0587 47.9733 103.206 47.9733 103.206H47.9748Z" fill="#EAEAEA"/>
<path d="M45.1342 142.112C31.9444 142.112 21.2514 131.399 21.2514 118.183H69.0186C69.0186 131.399 58.3256 142.112 45.1357 142.112H45.1342Z" fill="#6876C0"/>
<path d="M39.2573 141.929C40.2285 142.051 41.2192 142.112 42.2249 142.112C55.4147 142.112 66.1077 131.399 66.1077 118.182H60.174C60.174 130.391 51.0485 140.464 39.2573 141.928V141.929Z" fill="#FFEBDC"/>
<path d="M20.9211 143.331H69.3473C69.3473 141.7 68.0278 140.378 66.4006 140.378H23.8678C22.2406 140.378 20.9211 141.7 20.9211 143.331Z" fill="#E4ECF9"/>
<path d="M20.7075 118.917H69.803V118.183H20.7075V118.917Z" fill="#E4ECF9"/>
<path d="M42.8906 143.331H170.807L197.569 33.4852H69.6528L42.8906 143.331Z" fill="#AEBCCA"/>
<path d="M224.381 143.331H96.4645L69.7007 33.4852H197.619L224.381 143.331Z" fill="#D8D7D7"/>
<path d="M215.614 137.104H102.198L78.4675 39.7118H191.885L215.614 137.104Z" fill="white"/>
<path d="M98.4518 65.837H87.9113L85.7072 56.7867H96.2463L98.4518 65.837Z" fill="#E4ECF9"/>
<path d="M114.4 65.837H103.86L101.656 56.7867H112.195L114.4 65.837Z" fill="#E4ECF9"/>
<path d="M130.531 65.837H119.992L117.786 56.7867H128.327L130.531 65.837Z" fill="#E4ECF9"/>
<path d="M146.663 65.837H136.124L133.918 56.7867H144.457L146.663 65.837Z" fill="#E4ECF9"/>
<path d="M162.795 65.837H152.256L150.05 56.7867H160.589L162.795 65.837Z" fill="#6876C0"/>
<path d="M178.927 65.837H168.386L166.182 56.7867H176.721L178.927 65.837Z" fill="#E4ECF9"/>
<path d="M195.057 65.837H184.518L182.313 56.7867H192.853L195.057 65.837Z" fill="#E4ECF9"/>
<path d="M102.846 81.8505H92.3073L90.1018 72.8002H100.641L102.846 81.8505Z" fill="#E4ECF9"/>
<path d="M118.795 81.8505H108.256L106.05 72.8002H116.589L118.795 81.8505Z" fill="#E4ECF9"/>
<path d="M134.927 81.8505H124.388L122.182 72.8002H132.721L134.927 81.8505Z" fill="#E4ECF9"/>
<path d="M151.059 81.8505H140.518L138.314 72.8002H148.853L151.059 81.8505Z" fill="#E4ECF9"/>
<path d="M167.189 81.8505H156.65L154.445 72.8002H164.985L167.189 81.8505Z" fill="#E4ECF9"/>
<path d="M183.322 81.8505H172.783L170.577 72.8002H181.116L183.322 81.8505Z" fill="#E4ECF9"/>
<path d="M199.454 81.8505H188.915L186.709 72.8002H197.248L199.454 81.8505Z" fill="#E4ECF9"/>
<path d="M106.842 97.6648H96.3031L94.0975 88.6146H104.638L106.842 97.6648Z" fill="#E4ECF9"/>
<path d="M122.79 97.6648H112.251L110.046 88.6146H120.586L122.79 97.6648Z" fill="#E4ECF9"/>
<path d="M138.922 97.6648H128.383L126.178 88.6146H136.717L138.922 97.6648Z" fill="#E4ECF9"/>
<path d="M155.055 97.6648H144.515L142.31 88.6146H152.849L155.055 97.6648Z" fill="#E4ECF9"/>
<path d="M171.185 97.6648H160.646L158.442 88.6146H168.981L171.185 97.6648Z" fill="#E4ECF9"/>
<path d="M187.317 97.6648H176.778L174.573 88.6146H185.112L187.317 97.6648Z" fill="#E4ECF9"/>
<path d="M203.449 97.6648H192.91L190.705 88.6146H201.244L203.449 97.6648Z" fill="#E4ECF9"/>
<path d="M110.838 113.078H100.299L98.0933 104.028H108.634L110.838 113.078Z" fill="#E4ECF9"/>
<path d="M126.786 113.078H116.247L114.043 104.028H124.582L126.786 113.078Z" fill="#E4ECF9"/>
<path d="M142.918 113.078H132.379L130.174 104.028H140.713L142.918 113.078Z" fill="#E4ECF9"/>
<path d="M159.05 113.078H148.511L146.306 104.028H156.845L159.05 113.078Z" fill="#E4ECF9"/>
<path d="M175.182 113.078H164.642L162.438 104.028H172.977L175.182 113.078Z" fill="#E4ECF9"/>
<path d="M191.313 113.078H180.774L178.568 104.028H189.109L191.313 113.078Z" fill="#E4ECF9"/>
<path d="M207.445 113.078H196.906L194.7 104.028H205.239L207.445 113.078Z" fill="#E4ECF9"/>
<path d="M114.635 128.292H104.096L101.89 119.242H112.429L114.635 128.292Z" fill="#E4ECF9"/>
<path d="M130.583 128.292H120.044L117.838 119.242H128.377L130.583 128.292Z" fill="#E4ECF9"/>
<path d="M146.715 128.292H136.174L133.97 119.242H144.51L146.715 128.292Z" fill="#E4ECF9"/>
<path d="M42.8906 143.331L70.0593 138.107L96.4644 143.331H42.8906Z" fill="#AAAAAA"/>
<path d="M92.3149 22.0036C85.9 22.0036 80.6656 27.1418 80.4848 33.5256H85.2201C85.3979 29.7588 88.512 26.748 92.3149 26.748C96.1178 26.748 99.4186 29.9399 99.4186 33.8654C99.4186 37.791 96.2328 40.9829 92.3149 40.9829C91.0074 40.9829 89.9465 42.0443 89.9465 43.3544C89.9465 44.6644 91.0059 45.7273 92.3149 45.7273C98.8433 45.7273 104.154 40.4065 104.154 33.8654C104.154 27.3244 98.8433 22.0036 92.3149 22.0036Z" fill="#494949"/>
<path d="M122.306 22.0036C115.891 22.0036 110.657 27.1418 110.476 33.5256H115.212C115.389 29.7588 118.503 26.748 122.306 26.748C126.109 26.748 129.41 29.9399 129.41 33.8654C129.41 37.791 126.224 40.9829 122.306 40.9829C120.999 40.9829 119.938 42.0443 119.938 43.3544C119.938 44.6644 120.997 45.7273 122.306 45.7273C128.835 45.7273 134.145 40.4065 134.145 33.8654C134.145 27.3244 128.835 22.0036 122.306 22.0036Z" fill="#494949"/>
<path d="M152.296 22.0036C145.881 22.0036 140.647 27.1418 140.466 33.5256H145.201C145.379 29.7588 148.493 26.748 152.296 26.748C156.099 26.748 159.4 29.9399 159.4 33.8654C159.4 37.791 156.214 40.9829 152.296 40.9829C150.989 40.9829 149.928 42.0443 149.928 43.3544C149.928 44.6644 150.987 45.7273 152.296 45.7273C158.825 45.7273 164.135 40.4065 164.135 33.8654C164.135 27.3244 158.825 22.0036 152.296 22.0036Z" fill="#494949"/>
<path d="M182.287 22.0036C175.873 22.0036 170.638 27.1418 170.457 33.5256H175.193C175.371 29.7588 178.485 26.748 182.287 26.748C186.09 26.748 189.391 29.9399 189.391 33.8654C189.391 37.791 186.205 40.9829 182.287 40.9829C180.98 40.9829 179.919 42.0444 179.919 43.3544C179.919 44.6644 180.979 45.7273 182.287 45.7273C188.816 45.7273 194.127 40.4065 194.127 33.8654C194.127 27.3244 188.816 22.0036 182.287 22.0036Z" fill="#494949"/>
<path d="M69.7007 33.4852L70.0593 138.107L42.8906 143.331L69.7007 33.4852Z" fill="#D8D7D7"/>
<path d="M153.934 71.9233C149.823 70.7127 146.367 68.2053 143.878 65.9691C141.339 63.6887 140.191 61.2284 140.824 59.0467L140.824 59.0467C141.147 57.9314 141.956 56.8518 143.097 55.9039C144.239 54.9541 145.729 54.1245 147.439 53.5122C151.265 52.1424 155.527 52.0151 159.44 53.1526C163.09 54.2135 165.502 55.5392 167.258 56.9584C169.009 58.3741 170.095 59.8744 171.097 61.2579L171.102 61.2648C171.102 61.2648 171.102 61.2648 171.102 61.2648L170.9 61.4114L170.697 61.5581C169.874 60.4213 169.017 59.2392 167.799 58.0939C165.962 56.6438 163.358 55.3024 159.17 54.0844C155.322 52.966 151.25 52.6876 147.492 54.0335C147.174 54.1476 146.863 54.269 146.562 54.397C145.339 54.9305 144.271 55.5776 143.416 56.2884C142.323 57.197 141.59 58.1977 141.304 59.1859L153.934 71.9233ZM153.934 71.9233L153.937 71.9264L153.999 71.9444C158.122 73.1434 162.322 73.2986 165.654 72.7383C169.043 72.1699 171.388 70.2807 172.014 68.1162C172.585 66.1457 171.732 63.9875 169.687 61.8894C169.681 61.8834 169.675 61.8774 169.669 61.8714L169.312 62.221C169.312 62.221 169.312 62.221 169.312 62.2211C169.312 62.2214 169.313 62.2218 169.313 62.2221C169.318 62.2276 169.324 62.233 169.329 62.2384C171.223 64.1828 171.847 66.3742 171.395 67.9368C170.896 69.6598 168.879 71.0101 165.703 71.5431L153.934 71.9233ZM165.703 71.5431C162.465 72.0864 158.449 71.744 154.398 70.566C150.347 69.3879 146.773 67.5244 144.327 65.3276C141.929 63.1732 140.947 60.951 141.446 59.2278L141.446 59.2278C141.713 58.3055 142.418 57.3601 143.482 56.4926C144.543 55.6275 145.946 54.8531 147.576 54.2688C151.269 52.9463 155.284 53.2154 159.1 54.3245L165.703 71.5431ZM167.962 57.9041C166.183 56.2327 163.639 54.6333 159.37 53.3927L167.962 57.9041Z" fill="black" stroke="black" stroke-width="0.5"/>
<path d="M266.294 144L21.3866 144C21.2282 144 21.0997 143.871 21.0997 143.713V143.534C21.0997 143.376 21.2282 143.247 21.3866 143.247L266.294 143.247C266.452 143.247 266.58 143.376 266.58 143.534V143.713C266.58 143.871 266.452 144 266.294 144Z" fill="#364154"/>
</g>
<defs>
<clipPath id="clip0_202_150">
<rect width="257" height="144" fill="white"/>
</clipPath>
</defs>
</svg>
